<svg xmlns="http://www.w3.org/2000/svg" width="512" height="512" viewBox="0 0 512 512" version="1.1">
	<path d="M 314 81.430 C 290.897 85.688, 291.479 85.505, 288.491 89.423 C 285.458 93.400, 285.347 93.386, 272 87.404 C 264.017 83.827, 262.888 83.592, 253.442 83.547 C 243.879 83.502, 243.043 83.673, 236.442 87.014 C 218.811 95.939, 146.288 137.176, 111.500 158.056 C 82.014 175.755, 72.250 182.539, 69.868 186.984 C 66.226 193.778, 67.952 201.886, 74.415 208.348 C 79.059 212.992, 83.901 215.438, 93.677 218.080 C 103.813 220.818, 105.002 221.907, 101.584 225.325 C 97.639 229.270, 97.996 234.439, 102.500 238.564 L 106 241.770 106 320.762 C 106 391.875, 105.841 399.887, 104.404 401.080 C 102.202 402.907, 62.323 403.778, 59.128 402.069 C 57.044 400.953, 56.969 400.464, 57.596 392.146 C 58.145 384.882, 57.961 382.825, 56.510 380.019 C 54.890 376.887, 54.770 371.175, 54.862 301.571 C 54.920 257.871, 54.496 217.933, 53.847 206 C 52.035 172.677, 51.921 173.829, 59.395 149.849 C 60.699 145.666, 60.676 144.861, 59.172 141.849 C 58.172 139.846, 55.953 137.745, 53.652 136.621 C 48.507 134.108, 43.346 135.569, 38.981 140.774 C 36.086 144.227, 35.909 144.867, 36.567 149.500 C 36.957 152.250, 37.327 159.445, 37.388 165.488 L 37.500 176.476 34.500 176.998 C 31.955 177.440, 31.500 177.972, 31.500 180.496 C 31.500 182.682, 32.031 183.571, 33.500 183.844 C 38.182 184.713, 38 180.680, 38 283.467 C 38 379.420, 37.974 380.714, 36 382.500 C 33.810 384.482, 33.414 388.037, 35.045 391.083 C 35.827 392.546, 35.702 393.587, 34.545 395.240 C 33.695 396.453, 33 398.466, 33 399.715 C 33 401.358, 31.965 402.471, 29.250 403.745 C 25.644 405.439, 25.489 405.721, 25.205 411.093 C 24.749 419.732, 23.726 419.463, 55.857 419.167 C 74.269 418.998, 84.669 419.289, 87 420.038 C 88.925 420.657, 92.525 421.355, 95 421.590 C 101.121 422.170, 109.172 423.801, 154.500 433.643 C 228.100 449.625, 280.506 460.849, 286.738 461.966 C 295.227 463.487, 297.110 462.883, 325.500 449.540 C 338.700 443.336, 355.800 435.442, 363.500 431.999 C 371.200 428.555, 380.875 424.182, 385 422.282 L 392.500 418.826 407.500 419.079 C 415.750 419.218, 436.305 419.257, 453.179 419.166 C 487.198 418.982, 487 419.021, 487 412.494 C 487 406.987, 485.386 404.027, 482.017 403.353 C 479.583 402.867, 478.999 402.243, 478.994 400.125 C 478.990 398.681, 478.349 396.276, 477.569 394.781 C 476.459 392.653, 476.394 391.418, 477.268 389.101 C 478.400 386.103, 478.219 385.420, 474.710 379.435 C 473.781 377.850, 473.560 355.085, 473.760 281.366 L 474.020 185.361 477.577 183.665 C 482.514 181.310, 482.075 177.938, 476.667 176.665 L 472.834 175.762 473.361 164.631 C 473.651 158.509, 474.180 151.646, 474.537 149.380 C 475.750 141.675, 469.913 135, 461.964 135 C 458.412 135, 457.198 135.571, 454.368 138.571 C 452.516 140.535, 451 142.626, 451 143.218 C 451 143.809, 452.352 148.514, 454.005 153.673 C 458.739 168.453, 460.382 179.740, 458.819 186.743 C 457.823 191.204, 457.530 213.439, 457.517 285.500 C 457.507 336.650, 457.121 379.087, 456.657 379.805 C 456.194 380.522, 455.850 385.247, 455.894 390.305 C 455.938 395.362, 455.626 400.046, 455.201 400.712 C 454.127 402.397, 405.622 403.012, 403.965 401.362 C 402.471 399.872, 401.686 312.666, 402.738 265.018 L 403.500 230.536 407.743 228.197 C 411.430 226.164, 412.196 225.134, 413.593 220.329 C 415.720 213.010, 420.287 208.595, 431.228 203.279 C 436.007 200.957, 440.580 198.032, 441.390 196.779 C 445.432 190.531, 444.044 182.991, 437.679 176.627 C 432.387 171.335, 403.895 154.821, 370.250 137.547 C 365.163 134.935, 361.002 132.506, 361.004 132.149 C 361.007 131.792, 362.355 129.475, 364 127 C 365.645 124.525, 366.993 121.701, 366.996 120.725 C 366.998 119.749, 365.483 115.924, 363.630 112.225 C 361.776 108.526, 359.482 102.800, 358.533 99.500 C 355.946 90.505, 354.196 88.158, 346.122 82.850 C 337.276 77.035, 337.736 77.056, 314 81.430 M 314.818 95.509 C 299.994 98.109, 299 98.424, 299 100.514 C 299 102.548, 345.082 125.270, 348.283 124.815 C 351.592 124.345, 351.530 121.198, 348.007 110.676 C 341.606 91.555, 340.427 91.016, 314.818 95.509 M 244.481 104.819 C 241.720 105.847, 230.470 111.785, 219.481 118.014 C 195.823 131.423, 183.751 138.162, 147 158.472 C 114.455 176.457, 91.377 190.428, 90.019 192.965 C 89.308 194.293, 89.451 195.129, 90.542 196.035 C 92.365 197.548, 94.007 197.378, 132.958 191.657 L 162.415 187.330 147.049 186.665 C 138.597 186.299, 126.804 186, 120.841 186 C 114.192 186, 110 185.609, 110 184.988 C 110 182.655, 133.424 169.930, 151.114 162.653 C 165.619 156.687, 175.388 154.134, 191.531 152.090 C 207.076 150.122, 211.396 148.737, 212.716 145.297 C 213.977 142.012, 210.156 140.811, 200.750 141.537 C 191.476 142.253, 189.843 141.460, 194.418 138.462 C 200.976 134.165, 236.891 130.348, 262.657 131.209 C 282.707 131.879, 283.411 132.724, 284.539 157.500 C 285.481 178.194, 285.412 178.019, 292.313 177.307 C 296.890 176.835, 300.490 177.553, 315.613 181.958 C 325.451 184.824, 342.275 190.013, 353 193.489 C 402.192 209.434, 424.945 215.244, 409 207.789 C 405.425 206.117, 393.983 201.900, 383.573 198.417 C 367.174 192.931, 364.981 191.958, 367.149 191.134 C 368.525 190.610, 378.955 188.230, 390.326 185.843 C 401.697 183.457, 411 181.212, 411 180.856 C 411 180.500, 408.863 178.860, 406.250 177.212 C 401.044 173.927, 342.242 144.089, 316 131.415 C 306.925 127.032, 290.950 119.038, 280.500 113.650 C 264.062 105.175, 260.691 103.793, 255.500 103.402 C 251.189 103.077, 248.087 103.476, 244.481 104.819 M 254.429 150.994 C 248.882 151.808, 245.933 153.106, 241.775 156.563 C 237.782 159.884, 232.868 161.280, 229.579 160.030 C 222.645 157.394, 207.567 159.629, 202.649 164.022 C 199.621 166.727, 199.487 167.183, 199.151 175.911 C 198.844 183.876, 199.019 185.070, 200.578 185.668 C 201.556 186.043, 213.413 185.150, 226.928 183.683 C 240.442 182.216, 256.900 180.542, 263.500 179.964 C 282.025 178.342, 280.351 179.500, 279.786 168.692 C 279.491 163.064, 278.680 158.281, 277.696 156.379 C 274.725 150.633, 267.802 149.031, 254.429 150.994 M 266.500 198.096 C 252.699 200.060, 211.728 205.638, 168 211.507 C 120.974 217.819, 112.635 219.031, 112.062 219.640 C 111.753 219.968, 116.226 219.923, 122.001 219.539 C 132.150 218.865, 132.575 218.920, 134.662 221.171 C 135.849 222.452, 137.325 225.398, 137.940 227.717 C 139.321 232.919, 141.018 233.930, 147.458 233.388 C 188.333 229.947, 249.569 226.050, 263.295 226.016 C 269.189 226.002, 270.417 226.326, 272.545 228.455 C 273.895 229.805, 275 231.618, 275 232.484 C 275 233.351, 272.775 236.344, 270.056 239.136 C 265.412 243.903, 242.763 277.664, 238.175 286.657 L 236.083 290.758 239.849 291.360 C 244.509 292.105, 247.618 295.311, 248.544 300.324 C 249.216 303.962, 249.009 304.375, 244.295 308.824 C 241.569 311.396, 238.320 315.197, 237.075 317.271 C 231.874 325.933, 222.613 329.258, 216 324.837 C 214.075 323.550, 211.600 320.602, 210.500 318.285 L 208.500 314.072 195.809 314.036 C 182.397 313.998, 179.602 314.912, 183.902 317.928 C 196.636 326.863, 200.637 337.038, 196.118 349 C 190.649 363.479, 177.502 370.283, 165.212 364.996 C 146.854 357.098, 142.597 330.884, 158.047 320.873 C 163.861 317.105, 163.630 316.150, 155.973 312.271 C 152.960 310.745, 149.563 308.080, 148.412 306.340 C 147.262 304.603, 142.827 292.903, 138.557 280.340 C 127.238 247.041, 123.450 240.345, 116.403 241.183 L 113.500 241.527 116.741 243.285 C 123.726 247.072, 123.278 241.627, 123.802 329.011 L 124.275 407.871 126.887 408.903 C 128.324 409.471, 135.125 410.836, 142 411.935 C 148.875 413.035, 165.300 416.001, 178.500 418.525 C 191.700 421.050, 209.475 424.404, 218 425.979 C 226.525 427.553, 245.091 431.156, 259.259 433.985 C 273.426 436.815, 285.872 438.858, 286.916 438.527 C 287.961 438.195, 289.103 437.174, 289.455 436.257 C 290.125 434.512, 288.168 199.427, 287.466 197.250 C 286.943 195.629, 282.614 195.803, 266.500 198.096 M 328.263 237.155 C 322.247 238.819, 321.803 241.182, 323.332 263.409 C 324.200 276.019, 325.127 283.448, 325.959 284.451 C 326.825 285.494, 328.979 286, 332.550 286 C 341.141 286, 341.636 284.842, 342.484 262.753 C 343.214 243.741, 342.723 239.954, 339.298 238.202 C 336.268 236.651, 331.663 236.215, 328.263 237.155 M 304.579 237.873 C 304.271 238.371, 304.440 248.841, 304.955 261.139 C 305.470 273.438, 306.382 302.625, 306.981 326 C 308.311 377.897, 308.388 378.817, 311.527 380.010 C 312.857 380.516, 320.384 380.602, 328.698 380.205 L 343.500 379.500 343.790 375 C 344.150 369.412, 338.374 312.101, 337.124 308.863 C 335.534 304.743, 331.785 302.220, 325.564 301.084 C 318.989 299.882, 315.542 297.377, 313.336 292.199 C 312.144 289.398, 310.471 275.794, 307.442 244.261 C 306.871 238.312, 305.793 235.908, 304.579 237.873 M 358.440 242.451 C 356.287 245.737, 352.575 279.783, 354.162 281.695 C 355.946 283.844, 360.769 283.282, 362.441 280.730 C 363.259 279.481, 364.845 271.956, 365.964 264.007 C 369.024 242.288, 368.724 240, 362.823 240 C 360.979 240, 359.506 240.824, 358.440 242.451 M 229.627 245.283 C 227.074 247.151, 216.273 280.662, 217.333 283.427 C 218.209 285.709, 221.317 285.356, 223.823 282.688 C 225.801 280.582, 233.407 264.652, 238.012 252.969 C 239.676 248.749, 239.714 248.036, 238.378 246.129 C 236.685 243.712, 232.349 243.293, 229.627 245.283 M 383.512 244.980 C 383.179 245.520, 381.573 254.407, 379.944 264.730 C 375.583 292.356, 374.781 294.137, 364.349 299.357 C 356.527 303.270, 354.672 306.168, 355.300 313.500 C 355.583 316.800, 357.473 337.500, 359.499 359.500 C 363.592 403.924, 363.667 404.241, 370.292 404.807 C 375.295 405.234, 377.678 402.603, 378.419 395.832 C 379.171 388.956, 381.568 346.369, 383.530 305 C 384.378 287.125, 385.505 267.775, 386.035 262 C 387.386 247.274, 387.299 244, 385.559 244 C 384.766 244, 383.845 244.441, 383.512 244.980 M 203.144 248.076 C 201.328 250.025, 194 276.306, 194 280.869 C 194 283.541, 198.518 284.546, 201.562 282.551 C 203.190 281.484, 204.560 278.784, 206.022 273.756 C 207.183 269.765, 209.250 262.762, 210.616 258.193 C 211.981 253.625, 212.821 249.012, 212.482 247.943 C 211.615 245.211, 205.736 245.294, 203.144 248.076 M 177.064 248.422 C 175.712 250.052, 170.920 280.629, 171.699 282.659 C 172.380 284.433, 178.435 284.385, 179.922 282.594 C 180.563 281.821, 182.463 274.159, 184.144 265.567 C 187.535 248.236, 187.358 247, 181.500 247 C 179.710 247, 177.714 247.640, 177.064 248.422 M 144.256 250.750 C 152.009 278.502, 153.534 283, 155.187 283 C 157.724 283, 158.768 280.355, 159.949 270.938 C 162.378 251.562, 161.261 249, 150.383 249 C 144.562 249, 143.826 249.210, 144.256 250.750 M 158 297 C 158 297.550, 158.900 298.900, 160 300 C 161.899 301.899, 163.333 302, 188.309 302 C 215.897 302, 219.179 301.514, 217.694 297.645 C 217.128 296.170, 214.013 296, 187.531 296 C 168.510 296, 158 296.356, 158 297 M 164.241 332.250 C 159.268 337.559, 159.154 344.812, 163.962 349.959 C 167.471 353.716, 170.816 354.521, 175.236 352.675 C 177.974 351.531, 179.148 350.180, 180.514 346.602 C 182.183 342.233, 182.184 341.771, 180.545 337.479 C 177.771 330.216, 168.832 327.349, 164.241 332.250" stroke="none" fill="black" fill-rule="evenodd"/>
</svg>